<?xml version="1.0" encoding="UTF-8" standalone="no"?>
<!-- Created with Inkscape (http://www.inkscape.org/) -->
<svg id="svg2" xmlns:rdf="http://www.w3.org/1999/02/22-rdf-syntax-ns#" xmlns="http://www.w3.org/2000/svg" height="43.24" width="400" version="1.1" xmlns:cc="http://creativecommons.org/ns#" xmlns:dc="http://purl.org/dc/elements/1.1/">
	<metadata id="metadata7">
		<rdf:RDF>
			<cc:Work rdf:about="">
				<dc:format>image/svg+xml</dc:format>
				<dc:type rdf:resource="http://purl.org/dc/dcmitype/StillImage"/>
				<dc:title/>
			</cc:Work>
		</rdf:RDF>
	</metadata>
	<g id="layer1" fill="#ff0000" transform="translate(-39.824135,-580.52823)">
		<path id="path26100" style="baseline-shift:baseline;block-progression:tb;color:#000000;direction:ltr;text-indent:0;text-align:start;enable-background:accumulate;text-transform:none;" d="m151.6,585.5c-5.6635,0.11581-10.38,2.8263-13.513,6.4392-3.1334,3.6129-4.8529,8.0984-4.8974,12.425v0.0906,0.0453c0.14557,4.2473,1.5962,8.9563,4.6707,12.788,3.0666,3.8216,7.9538,6.6326,14.148,6.4392v0.0453c4.728-0.0294,9.199-1.4781,12.38-4.9428h0.0453c0.0511-0.0561,0.0854-0.12421,0.13597-0.18138,0.0343-0.0426,0.0571-0.0933,0.0907-0.13598h0.0453c0.60909-0.77552,1.1214-1.6147,1.4964-2.4487l-2.9022-5.2149c-0.75694,1.4481-1.7642,2.7437-2.8568,3.9905-1.9721,2.2916-4.6227,3.241-8.4798,3.265h-0.0453-0.0453c-4.5137,0.15196-7.4484-1.6098-9.6135-4.3079-2.1358-2.6617-3.3149-6.3135-3.4463-9.3414,0.00014-0.0131-0.00021-0.0318,0-0.0453,0.0405-2.7845,1.2941-6.2111,3.537-8.7973,2.2447-2.5882,5.3358-4.3944,9.2961-4.4893,0.0169,0.00054,0.0285-0.00057,0.0453,0,3.1032,0.10295,5.3522,0.6063,7.3008,1.9953,1.9805,1.4116,3.8996,3.9832,5.759,8.8426,1.6314,4.2682,2.8011,7.704,4.6707,11.699,3.3518,6.937,8.348,9.8778,12.924,10.067h0.0453l0.0453,0.0453c2.5457,0.0131,5.4853-0.74669,8.0264-2.6755s4.4963-5.2596,4.3986-9.4774v-0.0453c-0.1377-3.6532-2.2833-6.4261-4.58-8.0264s-4.8126-2.3683-6.4846-2.8568h-0.0453-0.0453c-1.7831-0.45155-3.1714-0.95522-4.0812-1.6778-0.88571-0.7035-1.5577-1.6558-1.9499-3.8545-0.0589-0.54355,0.2197-1.6962,0.90693-2.5394,0.67209-0.82457,1.552-1.4546,3.1289-1.4964,0.0449,0.001,0.0473-0.001,0.0908,0,2.0205,0.0634,2.4504-0.01,3.3103,0.7709,0.0272,0.0248,0.0626,0.0187,0.0908,0.0453,0.94591,0.74397,1.2917,1.5132,1.7685,2.358l4.444-3.401c-1.1498-1.531-1.5918-2.3552-2.3127-3.0382-0.0941-0.089-0.16615-0.18564-0.27209-0.27209l-0.0453,0.0453c-2.274-1.9402-4.9639-2.0648-6.8927-2.1313h-0.0453-0.0908c-3.2516,0.0325-5.944,1.584-7.5729,3.5824s-2.3845,4.3759-2.1313,6.7113l0.0453,0.0453v0.0908c0.55652,3.3571,2.044,5.9001,4.0358,7.4822,1.961,1.5575,4.1726,2.1796,6.1218,2.6754,0.0289,0.009,0.0614,0.0369,0.0908,0.0453,1.4841,0.43819,3.3593,1.0952,4.716,2.0406,1.3693,0.95409,2.0994,1.8781,2.1766,3.537,0.0008,0.0171-0.00066,0.0282,0,0.0453,0.0453,2.5369-0.85179,3.8465-2.1766,4.8521-1.3085,0.99319-3.1743,1.4839-4.4893,1.4964-0.0293-0.001-0.0613,0.001-0.0908,0-2.6108-0.12987-5.2654-1.2484-7.981-6.8473-0.007-0.0131,0.007-0.0328,0-0.0453-1.7121-3.6649-2.824-6.9343-4.4893-11.291-2.0914-5.4657-4.5738-9.115-7.7543-11.382s-6.8063-2.9311-10.52-3.0382h-0.0907-0.0453z"/>
		<path id="path3182" style="text-align:start;" d="m295.88,580.53c-0.8041,0.00005-1.5461,0.31144-2.1264,0.89171-0.58849,0.56498-0.8917,1.3408-0.8917,2.1607v34.296c0,0.81473,0.29614,1.5417,0.85741,2.1264v0.0342h0.0342c0.58464,0.56127,1.3116,0.85742,2.1264,0.85742,0.81472,0,1.5594-0.29044,2.1264-0.85742,0.5639-0.56391,0.87181-1.3029,0.8917-2.0921,2.1658,1.829,4.2482,2.9495,6.242,2.9495h4.2528c0.81568,0,1.7474-0.2216,2.8123-0.65164,1.0657-0.45089,1.9179-0.97976,2.5379-1.5776l2.1264-2.0235v-0.0342c0.59428-0.55593,1.1005-1.359,1.509-2.4008,0.41433-1.0566,0.61732-2.0669,0.61734-3.0524v-10.049c-0.00002-1.1015-0.22947-2.2063-0.68593-3.3268-0.43678-1.123-0.98145-2.0306-1.7148-2.6751h-0.0342l-2.3322-2.0235c-1.3876-1.2194-3.037-1.852-4.8358-1.852h-4.5614c-1.6096,0.00003-3.1498,0.66127-4.5957,1.852h-0.0342v-0.0343l-1.269,1.0289v-10.495c-0.00001-0.80422-0.32467-1.5652-0.89171-2.1264-0.008-0.008-0.0268,0.008-0.0342,0-0.56236-0.57341-1.3175-0.92595-2.1264-0.92601zm31.484,0c-0.8041,0.00005-1.5461,0.31144-2.1264,0.89171-0.5885,0.56498-0.89171,1.3408-0.89171,2.1607v34.296c0,0.81473,0.29614,1.5417,0.85741,2.1264v0.0342c0.58464,0.56127,1.346,0.85742,2.1607,0.85742,0.81472,0,1.5594-0.29044,2.1264-0.85742,0.5639-0.56391,0.87181-1.3029,0.89171-2.0921,2.1658,1.829,4.2482,2.9495,6.242,2.9495h4.2528c0.81567,0,1.7474-0.2216,2.8123-0.65164,1.0553-0.4465,1.8853-0.9873,2.5036-1.5776h0.0342l2.1264-2.0235c0.60283-0.55649,1.0963-1.3826,1.509-2.435,0.41434-1.0566,0.61731-2.0669,0.61734-3.0524v-10.049c-0.00003-1.1015-0.22947-2.2062-0.68593-3.3268-0.43678-1.123-1.0158-2.0306-1.7491-2.6751l-2.3665-2.0235c-1.3876-1.2193-3.0027-1.852-4.8015-1.852h-4.5614c-1.6096,0.00002-3.1498,0.66127-4.5957,1.852h-0.0342v-0.0342l-1.269,1.0289v-10.495c-0.00001-0.80422-0.32467-1.5652-0.89171-2.1264-0.008-0.008-0.0268,0.008-0.0342,0-0.56237-0.5734-1.3175-0.92595-2.1264-0.926zm31.484,0c-0.81994,0.00005-1.5778,0.30885-2.1607,0.89171-0.56697,0.567-0.85742,1.346-0.85741,2.1607-0.00001,0.81476,0.29612,1.5418,0.85741,2.1264v0.0342c0.58464,0.56131,1.3459,0.85747,2.1607,0.85741h4.4585v28.157h-4.39c-0.81996,0-1.5778,0.34312-2.1607,0.92601h-0.0342c-0.55874,0.58202-0.85742,1.3277-0.85741,2.1264-0.00001,0.81474,0.30149,1.5584,0.85741,2.1607l0.0342,0.0342c0.58289,0.58289,1.3407,0.89171,2.1607,0.89171h14.988c0.81993,0,1.5957-0.33753,2.1607-0.926,0.57757-0.60073,0.89169-1.3407,0.89171-2.1607-0.00002-0.8041-0.34574-1.5461-0.92601-2.1264-0.58033-0.58019-1.3223-0.92601-2.1264-0.92601h-4.4585v-31.176c-0.00003-0.80407-0.31145-1.5803-0.89171-2.1607-0.58033-0.58025-1.3566-0.89166-2.1607-0.89171h-7.5452zm-277.32,10.7c-2.5127,0.00003-4.8566,1.049-6.9622,3.0524-2.0839,1.9818-3.1896,4.1804-3.1896,6.5163v10.46c0,2.341,1.1154,4.5507,3.2582,6.5506,2.1412,1.9781,4.4744,3.0181,6.8936,3.0181h5.7961c2.3808,0,4.6998-1.028,6.8593-2.9838,2.1869-1.9621,3.3267-4.1862,3.3268-6.5849v-10.46c-0.000033-2.435-1.1384-4.6901-3.3268-6.6535-2.1609-1.957-4.4755-2.9574-6.8593-2.9152h-5.7961zm31.381,0c-1.6314,0.00003-3.1154,0.65398-4.4585,1.7491-0.19433-0.39682-0.35584-0.83987-0.68593-1.0975-0.51461-0.40165-1.1562-0.58302-1.8863-0.58304-0.81994,0.00004-1.5778,0.30883-2.1607,0.89171-0.56698,0.56699-0.85742,1.3117-0.85741,2.1264v23.562c-0.00001,0.80411,0.31139,1.5461,0.89171,2.1264,0.60073,0.57762,1.375,0.89171,2.195,0.89171,0.80409,0,1.5298-0.34026,2.0921-0.926,0.55872-0.58202,0.8574-1.2934,0.85741-2.0921v-17.388l3.3954-2.8809c0.2133-0.18486,0.39492-0.27436,0.61733-0.27437,0.25806,0.00001,0.34735,0.0626,0.41156,0.13719,0.0642,0.0746,0.13718,0.23832,0.13719,0.58304v19.755c-0.00002,0.81997,0.30879,1.5778,0.89171,2.1607,0.58199,0.55874,1.3276,0.85741,2.1264,0.85741,0.81472,0,1.5594-0.29044,2.1264-0.85741,0.58573-0.56232,0.89169-1.288,0.89171-2.0921v-17.868l2.778-2.3322c0.28921-0.241,0.51247-0.34296,0.68593-0.34297,0.14593,0,0.15732,0.002,0.24007,0.13719,0.0799,0.13072,0.14944,0.4742,0.17148,0.926v0.0342l0.58304,19.446c0.0235,0.79999,0.34826,1.5486,0.92601,2.1264,0.58288,0.58291,1.3407,0.89171,2.1607,0.89171,0.80407,0,1.5804-0.31141,2.1607-0.89171,0.58026-0.58031,0.89166-1.3223,0.89171-2.1264v-0.0342l-0.72023-20.269c-0.0843-1.8112-0.74792-3.35-1.9892-4.5271-1.2119-1.1905-2.7225-1.8177-4.39-1.8177-1.8808,0.00003-3.5963,0.8721-5.1445,2.3665-1.3171-1.5066-2.9831-2.3664-4.9387-2.3665zm120.07,0c-0.82518,0.00003-1.5797,0.32177-2.1607,0.92601-0.56127,0.58468-0.85742,1.346-0.85741,2.1607v23.562c-0.00001,0.81473,0.29613,1.5417,0.85741,2.1264v0.0342h0.0342c0.58464,0.56127,1.3116,0.85742,2.1264,0.85742,0.79872,0,1.5444-0.29868,2.1264-0.85742h0.0342c0.5829-0.58289,0.8917-1.3407,0.89171-2.1607v-13.616l6.8593-5.9676c0.79104-0.68065,1.4589-0.96029,1.9549-0.9603h3.2239c0.55862,0.00002,0.95716,0.18682,1.3376,0.58304h0.0342c0.39622,0.3804,0.54872,0.81321,0.54874,1.3719v1.3719c-0.00002,0.81475,0.29612,1.576,0.85742,2.1607h0.0342c0.58463,0.5613,1.3116,0.89174,2.1264,0.89171,0.81993,0.00003,1.5957-0.3375,2.1607-0.926,0.58544-0.58547,0.89166-1.3247,0.89171-2.1607v-1.3376c-0.00003-2.1784-0.81822-4.1106-2.3665-5.6589-1.5483-1.5482-3.4463-2.3321-5.6246-2.3322h-3.6354c-1.7578,0.00004-3.5078,0.79004-5.2474,2.2636h-0.0342l-3.121,2.6408v-1.8863c-0.00001-0.836-0.30624-1.6095-0.89171-2.195-0.56495-0.58844-1.3407-0.89169-2.1607-0.89171zm38.549,0c-2.5127,0.00003-4.8566,1.049-6.9622,3.0524-2.0839,1.9818-3.1896,4.1804-3.1896,6.5163v10.46c0,2.341,1.1497,4.5507,3.2925,6.5506,2.1412,1.9781,4.4402,3.0181,6.8593,3.0181h5.8304c2.3808,0,4.6655-1.028,6.825-2.9838,2.1869-1.9621,3.361-4.1862,3.3611-6.5849v-10.46c-0.00003-2.435-1.1727-4.6901-3.3611-6.6535-2.1609-1.957-4.4412-2.9574-6.825-2.9152h-5.8304zm145.25,0c-0.82518,0.00003-1.5797,0.32177-2.1607,0.92601-0.56127,0.58468-0.85742,1.346-0.85741,2.1607v23.562c-0.00001,0.81473,0.29613,1.5417,0.85741,2.1264v0.0342c0.58464,0.56127,1.346,0.85742,2.1607,0.85742,0.79872,0,1.5444-0.29868,2.1264-0.85742,0.5829-0.58289,0.8917-1.3407,0.89171-2.1607v-13.581l6.8936-6.0019c0.79104-0.68065,1.4589-0.96029,1.9549-0.9603h3.1896c0.55862,0.00002,0.99146,0.18682,1.3719,0.58304,0.39621,0.3804,0.58302,0.81321,0.58304,1.3719v1.3719c-0.00002,0.81475,0.29611,1.576,0.85741,2.1607,0.58463,0.5613,1.3459,0.89174,2.1607,0.89171,0.81994,0.00003,1.5614-0.33751,2.1264-0.926,0.58545-0.58547,0.89169-1.3246,0.89171-2.1607v-1.3376c-0.00002-2.1784-0.78392-4.1106-2.3322-5.6589-1.5483-1.5482-3.4806-2.3321-5.6589-2.3322h-3.6354c-1.7578,0.00004-3.5078,0.79004-5.2474,2.2636l-3.1553,2.6751v-1.9206c-0.00001-0.836-0.30624-1.6095-0.89171-2.195-0.56495-0.58845-1.3064-0.89169-2.1264-0.89171zm-369.41,0.0686c-1.9431,0.00003-3.6401,0.73008-4.973,2.1264-1.3063,1.3906-1.9892,3.0745-1.9892,4.973-0.000011,1.2349,0.39638,2.4455,1.1318,3.6011,0.74845,1.1762,1.825,2.0663,3.1896,2.6751l13.341,6.0019c0.96111,0.42909,1.3032,0.97773,1.3033,1.9206-0.000022,0.59374-0.18234,1.1023-0.58304,1.5776-0.4028,0.45112-0.85022,0.65164-1.4405,0.65163h-9.2258c-1.2635,0.00001-2.1372-0.3016-2.7437-0.89171-0.76648-0.76648-1.5648-1.2347-2.4008-1.2347-0.89003,0-1.7067,0.3112-2.2979,0.92601v0.0342c-0.5562,0.57937-0.85741,1.3092-0.85741,2.0921,0,1.2591,0.92584,2.3732,2.4693,3.464,1.5783,1.1006,3.3012,1.6805,5.1445,1.6805h10.049c2.0518,0,3.9076-0.8074,5.4874-2.3665,1.6107-1.5689,2.435-3.5387,2.4351-5.7961-0.000033-1.6946-0.44787-3.2783-1.3719-4.6643-0.8978-1.3988-2.0944-2.4179-3.5325-3.0524l-13.204-5.8647c-0.60628-0.27854-0.75453-0.51543-0.75452-0.9603,0-0.35383,0.06804-0.50174,0.20578-0.61734s0.41701-0.24006,0.89171-0.24007h11.215c0.52607,0.00001,1.0635,0.25599,1.6462,0.8917,0.72452,0.79045,1.6198,1.2347,2.5722,1.2347,0.73537,0.00002,1.4183-0.30806,1.9892-0.82312h0.03424c0.60263-0.54551,0.92596-1.2966,0.92601-2.1264-0.000044-1.2518-0.80296-2.4026-2.2293-3.4982-1.4501-1.1348-3.1594-1.7148-5.0416-1.7148h-11.386zm163.11,0c-1.7262,0.00003-3.3583,0.61078-4.8358,1.8177h-0.0342v0.0342l-4.3214,3.7383c-1.898,1.6298-2.886,3.6438-2.8123,5.899,0.00038,0.0115-0.00044,0.0228,0,0.0342v6.4477c0,2.3146,0.84947,4.2462,2.5036,5.6246l4.8015,4.1842h0.0342c1.417,1.2055,3.1295,1.8177,5.1102,1.8177h10.632c0.8147,0,1.5594-0.29044,2.1264-0.85741,0.58286-0.5829,0.89166-1.3408,0.89171-2.1607-0.00005-0.81993-0.30325-1.5957-0.89171-2.1607-0.58033-0.58029-1.3223-0.8917-2.1264-0.89171h-10.186c-0.80655,0.00001-1.3776-0.1901-1.8177-0.58304v-0.0342l-4.3556-3.704c-0.41451-0.36662-0.58305-0.72885-0.58304-1.2347v-6.0705c-0.00001-0.79719,0.25438-1.33,0.78882-1.7834l3.9784-3.3954c0.53559-0.46647,1.019-0.68591,1.5433-0.68593h10.666c0.80354,0.00002,1.5622-0.30535,2.1264-0.85742v-0.0342c0.576-0.56515,0.92599-1.3016,0.92601-2.1264-0.00002-0.80882-0.35277-1.5297-0.92601-2.0921-0.008-0.008,0.008-0.0268,0-0.0342-0.56235-0.57324-1.3176-0.89166-2.1264-0.89171h-11.112zm181.6,0c-1.7664,0.00003-3.3981,0.62471-4.8358,1.7834h-0.0342v-0.0343l-2.0578,1.6462c-0.84759,0.67373-1.5522,1.6152-2.0921,2.778-0.50872,1.1395-0.78883,2.0581-0.78882,2.8466v11.386c-0.00001,0.92734,0.24287,1.8775,0.72023,2.9152v0.0342c0.49606,1.0335,1.1636,1.8237,1.9206,2.435v0.0342l2.195,1.9549c0.53066,0.46146,1.2505,0.84727,2.2293,1.2347h0.0342c1.0149,0.37282,1.9738,0.58304,2.9152,0.58304h13.101c0.78847,0,1.5143-0.31401,2.0921-0.89171,0.6016-0.57851,0.92596-1.3169,0.926-2.1264-0.00004-0.81994-0.30324-1.5957-0.89171-2.1607-0.58032-0.5803-1.3223-0.8917-2.1264-0.89171h-12.758c-0.54308,0.00001-1.1754-0.24539-1.8863-0.78882h-0.0342l-1.4062-1.2004h-0.0342c-0.62908-0.51005-0.89172-1.0596-0.89171-1.7491v-0.89171h17.011c0.80409,0.00001,1.546-0.31139,2.1264-0.89171,0.58029-0.58029,0.89167-1.3223,0.89171-2.1264v-6.0019c-0.00003-2.466-0.71096-4.4402-2.1607-5.7618l-0.0342-0.0342-1.8177-1.7491h-0.0342c-1.6309-1.5276-3.4111-2.3321-5.316-2.3322h-6.9622zm-309.94,6.0019,5.1445,0c0.67344,0.00003,1.2161,0.20178,1.7148,0.61734l1.7491,1.3719c0.46466,0.35977,0.68591,0.87784,0.68593,1.7491v10.049c-0.000022,0.71502-0.20086,1.1678-0.68593,1.5434v0.0342h-0.03424l-1.509,1.3376c-0.60582,0.53659-1.2056,0.75452-1.9206,0.75452h-5.7618c-0.66176,0-1.1168-0.1292-1.4062-0.37726l-1.852-1.6119c-0.53171-0.43501-0.78883-0.9401-0.78882-1.7148v-10.049c-0.000011-0.69213,0.22114-1.1933,0.72023-1.6119l1.6805-1.4405c0.4849-0.42232,1.2276-0.65161,2.2636-0.65163zm190,0,5.1445,0c0.67344,0.00003,1.2161,0.20178,1.7148,0.61734l1.7491,1.3719c0.46466,0.35977,0.72021,0.87784,0.72023,1.7491v10.049c-0.00002,0.71502-0.23516,1.1678-0.72023,1.5434v0.0342l-1.509,1.3376c-0.60583,0.53664-1.2399,0.75452-1.9549,0.75452h-5.7618c-0.66177,0-1.0825-0.1292-1.3719-0.37726l-1.8863-1.6119c-0.53171-0.43501-0.75453-0.94009-0.75452-1.7148v-10.049c-0.00001-0.69213,0.22114-1.1934,0.72022-1.6119l1.6805-1.4404c0.4849-0.42233,1.1933-0.65161,2.2293-0.65164zm33.439,0.0343,3.4296,0c0.54586,0.00002,1.0074,0.19922,1.4748,0.58304v-0.0343l1.7834,1.509h0.0342v0.0342c0.39917,0.32529,0.58302,0.7309,0.58304,1.4404v10.46c-0.00002,0.59524-0.18138,0.93713-0.58304,1.2347v0.0342h-0.0342l-1.9549,1.7834h-0.0342c-0.31151,0.25805-0.65239,0.37726-1.0975,0.37726h-4.047c-0.47592,0-0.94301-0.15419-1.4405-0.61734v-0.0342l-4.0127-3.361c-0.54671-0.46387-0.75453-0.96279-0.75452-1.6462v-5.6246c-0.00001-0.92207,0.21587-1.4956,0.65163-1.8863l4.4586-3.8069c0.30253-0.26127,0.7989-0.44583,1.5433-0.44585zm31.484,0,3.4296,0c0.54585,0.00002,1.0074,0.19922,1.4748,0.58304v-0.0343l1.7834,1.509v0.0342c0.39917,0.32529,0.61731,0.73089,0.61734,1.4404v10.46c-0.00002,0.59525-0.18138,0.93714-0.58304,1.2347l-0.0342,0.0342-1.9892,1.7834c-0.31885,0.27329-0.63991,0.37726-1.0975,0.37726h-4.047c-0.47592,0-0.94301-0.15419-1.4405-0.61734v-0.0342l-4.0127-3.361c-0.54671-0.46387-0.75453-0.96278-0.75452-1.6462v-5.6246c-0.00001-0.92208,0.21586-1.4956,0.65163-1.8863l4.4586-3.8069c0.30253-0.26127,0.79889-0.44583,1.5433-0.44585zm55.355,0.0686,6.242,0c0.4018,0.00001,0.95262,0.22302,1.6462,0.78882l1.4404,1.269c0.44232,0.38134,0.65162,0.90208,0.65164,1.7148v2.9152h-13.959v-3.2925c-0.00001-0.63684,0.21688-1.1017,0.75453-1.509h0.0342l1.4404-1.2004c0.54622-0.46087,1.1077-0.68591,1.7491-0.68593z"/>
	</g>
</svg>
